<svg xmlns="http://www.w3.org/2000/svg" xmlns:svg="http://www.w3.org/2000/svg" xmlns:xlink="http://www.w3.org/1999/xlink" id="svg8" width="793.701" height="1122.52" version="1.1" viewBox="0 0 210 297"><defs id="defs2"><linearGradient id="linearGradient948"><stop style="stop-color:#155315;stop-opacity:1" id="stop944" offset="0"/><stop style="stop-color:#3bd43b;stop-opacity:1" id="stop946" offset="1"/></linearGradient><linearGradient id="linearGradient940"><stop style="stop-color:#258325;stop-opacity:1" id="stop936" offset="0"/><stop style="stop-color:#3bd73b;stop-opacity:1" id="stop938" offset="1"/></linearGradient><radialGradient id="radialGradient942" cx="56.838" cy="172.33" r="36.675" fx="56.838" fy="172.33" gradientTransform="matrix(1.4310139,-2.0837881,1.0173874,0.69867766,-201.52781,203.54969)" gradientUnits="userSpaceOnUse" xlink:href="#linearGradient940"/><radialGradient id="radialGradient950" cx="66.848" cy="200.212" r="48.455" fx="66.848" fy="200.212" gradientTransform="matrix(1.6237901,-0.26680587,0.24624712,1.498662,-100.0801,-72.230114)" gradientUnits="userSpaceOnUse" xlink:href="#linearGradient948"/></defs><metadata id="metadata5"/><g id="layer1"><path style="fill:#fff;stroke:gray;stroke-width:1.32291666;stroke-linecap:butt;stroke-linejoin:miter;stroke-opacity:1;stroke-miterlimit:4;stroke-dasharray:none" id="path837" d="M 6.5781263,292.42078 H 205.09424 L 205.22096,67.537811 155.59192,7.1356761 H 6.2824653 Z"/><path style="fill:#f2f2f2;stroke:gray;stroke-width:1.32291666;stroke-linecap:butt;stroke-linejoin:round;stroke-opacity:1;stroke-miterlimit:1;stroke-dasharray:none" id="path839" d="m 155.59192,7.1356761 c 1.97121,18.9800009 1.95685,40.1947129 -17.82419,49.1884039 22.17004,7.431396 44.75883,10.98472 67.78921,10.448453 z"/><g id="g860" transform="translate(4.2602883,-5.5751344)"><path style="fill:url(#radialGradient950);fill-opacity:1;stroke:#37c837;stroke-width:.264584px;stroke-linecap:butt;stroke-linejoin:miter;stroke-opacity:1" id="path895-3" d="m 64.717358,192.86876 c 1.656955,-0.54362 2.824047,-1.94057 3.776653,-3.33264 0.992099,-1.44978 1.922348,-2.95771 3.195798,-4.19497 4.253115,-4.13224 8.868492,-7.94065 14.001154,-10.93429 5.420144,-3.16131 11.679475,-4.8335 17.955327,-4.84866 7.74799,-0.0187 15.33709,2.40673 22.09756,6.09796 2.61228,1.42631 5.04618,3.14458 7.46951,4.86788 1.89968,1.35092 3.97072,2.61315 5.30463,4.57561 0.5415,0.79666 1.63059,1.94477 1.00443,2.68203 -6.19593,7.29527 -14.20838,13.00408 -23.03482,16.66935 -8.07648,3.35384 -16.995836,4.97238 -25.721151,3.85677 -6.747639,-0.86275 -13.247353,-3.56084 -18.603376,-7.76435 -2.150559,-1.6878 -4.373684,-3.34804 -6.118202,-5.46492 -0.544935,-0.66125 -1.107802,-1.36481 -1.327513,-2.20977 z"/><path style="fill:url(#radialGradient942);fill-opacity:1;stroke:none;stroke-width:.264584px;stroke-linecap:butt;stroke-linejoin:miter;stroke-opacity:1" id="path895" d="m 63.879132,194.56949 c 0.749703,-2.15795 0.258843,-4.48899 -0.423997,-6.59589 -0.754793,-2.32891 -1.664336,-4.62611 -1.960394,-7.08371 -0.959774,-7.96718 -1.275736,-16.05894 -0.286619,-24.0388 1.023079,-8.25386 4.238581,-16.20606 9.196185,-22.88672 6.081468,-8.19513 14.569979,-14.35703 23.770928,-18.63868 3.990968,-1.85719 8.178485,-3.23627 12.381945,-4.53271 3.01674,-0.93043 6.05926,-2.13458 9.26653,-2.03244 1.3769,0.0438 3.63781,-0.22252 3.93425,1.13005 2.71553,12.39018 2.35848,25.40865 -0.74824,37.68728 -2.87334,11.35626 -8.23665,22.23014 -16.33079,30.78682 -6.38086,6.7455 -14.560841,11.8434 -23.542055,14.24679 -3.687794,0.98686 -7.399954,2.07173 -11.221119,2.30395 -1.340228,0.0815 -2.767138,0.17565 -4.036624,-0.34594 z"/></g></g></svg>