<svg xmlns="http://www.w3.org/2000/svg" xmlns:svg="http://www.w3.org/2000/svg" xmlns:xlink="http://www.w3.org/1999/xlink" id="svg8" width="501.684" height="485.324" version="1.1" viewBox="0 0 132.737 128.409"><defs id="defs2"><filter style="color-interpolation-filters:sRGB" id="filter3735"><feFlood id="feFlood3725" flood-color="#000" flood-opacity=".498" result="flood"/><feComposite id="feComposite3727" in="flood" in2="SourceGraphic" operator="in" result="composite1"/><feGaussianBlur id="feGaussianBlur3729" in="composite1" result="blur" stdDeviation=".7"/><feOffset id="feOffset3731" dx=".2" dy=".2" result="offset"/><feComposite id="feComposite3733" in="SourceGraphic" in2="offset" operator="over" result="fbSourceGraphic"/><feColorMatrix id="feColorMatrix3785" in="fbSourceGraphic" result="fbSourceGraphicAlpha" values="0 0 0 -1 0 0 0 0 -1 0 0 0 0 -1 0 0 0 0 1 0"/><feFlood id="feFlood3787" flood-color="#000" flood-opacity=".498" in="fbSourceGraphic" result="flood"/><feComposite id="feComposite3789" in="flood" in2="fbSourceGraphic" operator="in" result="composite1"/><feGaussianBlur id="feGaussianBlur3791" in="composite1" result="blur" stdDeviation="1"/><feOffset id="feOffset3793" dx=".1" dy=".5" result="offset"/><feComposite id="feComposite3795" in="fbSourceGraphic" in2="offset" operator="over" result="composite2"/></filter><filter style="color-interpolation-filters:sRGB" id="filter3771"><feFlood id="feFlood3761" flood-color="#000" flood-opacity=".498" result="flood"/><feComposite id="feComposite3763" in="flood" in2="SourceGraphic" operator="in" result="composite1"/><feGaussianBlur id="feGaussianBlur3765" in="composite1" result="blur" stdDeviation=".7"/><feOffset id="feOffset3767" dx="0" dy=".2" result="offset"/><feComposite id="feComposite3769" in="SourceGraphic" in2="offset" operator="over" result="composite2"/></filter><linearGradient id="linearGradient3989" x1="99.569" x2="132.077" y1="45.882" y2="47.327" gradientTransform="matrix(0.87361325,0,0,0.87361325,52.8064,14.472724)" gradientUnits="userSpaceOnUse" xlink:href="#linearGradient3987"/><linearGradient id="linearGradient3987"><stop id="stop3983" offset="0" style="stop-color:#007f00;stop-opacity:1"/><stop id="stop3985" offset="1" style="stop-color:#00ce00;stop-opacity:1"/></linearGradient><linearGradient id="linearGradient3981" x1="97.572" x2="127.172" y1="39.673" y2="14.656" gradientTransform="matrix(0.87361325,0,0,0.87361325,52.8064,14.472724)" gradientUnits="userSpaceOnUse" xlink:href="#linearGradient3979"/><linearGradient id="linearGradient3979"><stop id="stop3975" offset="0" style="stop-color:#00a800;stop-opacity:1"/><stop id="stop3977" offset="1" style="stop-color:#00e700;stop-opacity:1"/></linearGradient></defs><metadata id="metadata5"/><g id="layer2" transform="translate(-35.555122,-5.6152164)"><path id="path3475" d="M 57.462229,35.319582 V 122.96186 L 37.08149,106.44954 V 35.319582 Z" style="fill:#ccc;stroke:none;stroke-width:.264584px;stroke-linecap:butt;stroke-linejoin:miter;stroke-opacity:1"/><path style="fill:#ccc;fill-opacity:1;stroke:none;stroke-width:.264584px;stroke-linecap:butt;stroke-linejoin:miter;stroke-opacity:1" id="path3473" d="m 117.33065,35.319582 v 87.642278 l 20.38074,-16.51232 V 35.319582 Z"/><path style="fill:#f9f9f9;stroke:none;stroke-width:.275178px;stroke-linecap:butt;stroke-linejoin:miter;stroke-opacity:1;filter:url(#filter3771)" id="path3477" d="M 50.107206,18.844383 H 71.273873 L 114.93013,78.375634 H 93.763457 Z" transform="matrix(0.96286937,0,0,0.96013437,-11.165202,17.226443)"/><path style="fill:#fff;stroke:none;stroke-width:.275178px;stroke-linecap:butt;stroke-linejoin:miter;stroke-opacity:1;filter:url(#filter3735)" id="path3411" d="M 133.45096,18.844383 93.763459,78.375634 V 120.70897 H 114.93013 V 78.375634 l 39.6875,-59.531251 z" transform="matrix(0.96286937,0,0,0.96013437,-11.165202,17.226443)"/><g style="stroke-width:.873613" id="g922" transform="matrix(1.1446711,0,0,1.1446711,-24.890839,-10.951294)"><path style="fill:url(#linearGradient3989);fill-opacity:1;stroke:none;stroke-width:.231144px;stroke-linecap:butt;stroke-linejoin:miter;stroke-opacity:1" id="path3915-7" d="m 166.07316,52.09346 c -1.88446,-2.274275 -4.09786,-4.274547 -6.49497,-5.998455 -5.49443,-3.951363 -12.39656,-6.748085 -19.27514,-5.673263 -4.94945,0.773385 -9.10456,4.272215 -11.30306,8.668416 l -0.0121,-0.0013 c 0.002,0.0029 0.006,0.0057 0.009,0.0086 -0.009,0.01851 -0.0194,0.03644 -0.0285,0.05495 l 0.0936,0.0112 c 0.43348,0.444116 0.87217,0.883383 1.31775,1.315403 4.68365,4.541066 10.44952,8.670042 17.17906,9.08272 6.9502,0.426203 13.50872,-2.549391 19.42433,-5.890809 l 0.34042,0.04067 c -0.39806,-0.554001 -0.8153,-1.09346 -1.25017,-1.61829 z"/><path id="path3915" d="m 161.68942,15.133403 c -3.69923,-0.01153 -7.3977,0.51189 -10.97696,1.432801 -8.20398,2.110808 -16.42203,6.496579 -20.89115,13.958002 -3.21574,5.36884 -3.16994,12.156433 -0.69374,17.784422 l -0.0109,0.01053 c 0.005,-4.32e-4 0.0101,-8.97e-4 0.0152,-0.0013 0.0104,0.02362 0.0199,0.04764 0.0304,0.07122 l 0.0857,-0.08091 c 0.77479,-0.0606 1.54907,-0.130079 2.32189,-0.211972 8.12329,-0.860784 16.71562,-3.089955 22.49862,-9.217961 5.97263,-6.328937 8.35428,-15.004316 9.86901,-23.355473 l 0.31162,-0.294145 c -0.85231,-0.0613 -1.70596,-0.09258 -2.55962,-0.09524 z" style="fill:url(#linearGradient3981);fill-opacity:1;stroke:none;stroke-width:.231144px;stroke-linecap:butt;stroke-linejoin:miter;stroke-opacity:1"/></g></g></svg>