<svg xmlns="http://www.w3.org/2000/svg" xmlns:svg="http://www.w3.org/2000/svg" xmlns:xlink="http://www.w3.org/1999/xlink" id="svg8" width="501.684" height="485.324" version="1.1" viewBox="0 0 132.737 128.409"><defs id="defs2"><filter id="filter3735" style="color-interpolation-filters:sRGB"><feFlood id="feFlood3725" flood-color="#000" flood-opacity=".498" result="flood"/><feComposite id="feComposite3727" in="flood" in2="SourceGraphic" operator="in" result="composite1"/><feGaussianBlur id="feGaussianBlur3729" in="composite1" result="blur" stdDeviation=".7"/><feOffset id="feOffset3731" dx=".2" dy=".2" result="offset"/><feComposite id="feComposite3733" in="SourceGraphic" in2="offset" operator="over" result="fbSourceGraphic"/><feColorMatrix id="feColorMatrix3785" in="fbSourceGraphic" result="fbSourceGraphicAlpha" values="0 0 0 -1 0 0 0 0 -1 0 0 0 0 -1 0 0 0 0 1 0"/><feFlood id="feFlood3787" flood-color="#000" flood-opacity=".498" in="fbSourceGraphic" result="flood"/><feComposite id="feComposite3789" in="flood" in2="fbSourceGraphic" operator="in" result="composite1"/><feGaussianBlur id="feGaussianBlur3791" in="composite1" result="blur" stdDeviation="1"/><feOffset id="feOffset3793" dx=".1" dy=".5" result="offset"/><feComposite id="feComposite3795" in="fbSourceGraphic" in2="offset" operator="over" result="composite2"/></filter><filter id="filter3771" style="color-interpolation-filters:sRGB"><feFlood id="feFlood3761" flood-color="#000" flood-opacity=".498" result="flood"/><feComposite id="feComposite3763" in="flood" in2="SourceGraphic" operator="in" result="composite1"/><feGaussianBlur id="feGaussianBlur3765" in="composite1" result="blur" stdDeviation=".7"/><feOffset id="feOffset3767" dx="0" dy=".2" result="offset"/><feComposite id="feComposite3769" in="SourceGraphic" in2="offset" operator="over" result="composite2"/></filter><linearGradient id="linearGradient4069" x1="95.532" x2="78.02" y1="47.258" y2="69.132" gradientTransform="translate(37.769727,7.485508)" gradientUnits="userSpaceOnUse" xlink:href="#linearGradient4067"/><linearGradient id="linearGradient4067"><stop style="stop-color:#008b00;stop-opacity:1" id="stop4063" offset="0"/><stop style="stop-color:#00cd00;stop-opacity:1" id="stop4065" offset="1"/></linearGradient><linearGradient id="linearGradient3989" x1="94.699" x2="114.969" y1="47.281" y2="47.377" gradientTransform="translate(37.769727,7.485508)" gradientUnits="userSpaceOnUse" xlink:href="#linearGradient3987"/><linearGradient id="linearGradient3987"><stop style="stop-color:#007f00;stop-opacity:1" id="stop3983" offset="0"/><stop style="stop-color:#00ce00;stop-opacity:1" id="stop3985" offset="1"/></linearGradient><linearGradient id="linearGradient3981" x1="97.572" x2="111.614" y1="39.673" y2="29.645" gradientTransform="translate(37.769727,7.485508)" gradientUnits="userSpaceOnUse" xlink:href="#linearGradient3979"/><linearGradient id="linearGradient3979"><stop style="stop-color:#00a800;stop-opacity:1" id="stop3975" offset="0"/><stop style="stop-color:#00e700;stop-opacity:1" id="stop3977" offset="1"/></linearGradient><linearGradient id="linearGradient4209" x1="119.326" x2="111.513" y1="30.613" y2="52.602" gradientTransform="translate(37.769727,7.485508)" gradientUnits="userSpaceOnUse" xlink:href="#linearGradient4067"/></defs><metadata id="metadata5"/><g style="display:inline" id="layer2" transform="translate(-35.555122,-5.6152164)"><rect id="rect115" width="135.874" height="132.11" x="34.193" y="3.192" style="fill:#1a1a1a;stroke-width:5.29167"/><g id="g129" transform="translate(-2.2146053,-1.870291)"><path id="path3475" d="m 79.466737,41.263289 v 52.57762 l -12.226365,-9.90593 v -42.67169 z" style="fill:#ccc;fill-opacity:1;stroke:none;stroke-width:.264583px;stroke-linecap:butt;stroke-linejoin:miter;stroke-opacity:1"/><path style="fill:#ccc;fill-opacity:1;stroke:none;stroke-width:.264583px;stroke-linecap:butt;stroke-linejoin:miter;stroke-opacity:1" id="path3473" d="m 115.38169,41.263289 v 52.57762 l 12.22636,-9.90593 v -42.67169 z"/><path style="fill:#f2f2f2;fill-opacity:1;stroke:none;stroke-width:.458701px;stroke-linecap:butt;stroke-linejoin:miter;stroke-opacity:1;filter:url(#filter3771)" id="path3477" d="M 50.107206,18.844383 H 71.273873 L 114.93013,78.375634 H 93.763457 Z" transform="matrix(0.57762347,0,0,0.57599579,38.297275,30.409003)"/><path style="fill:#f9f9f9;stroke:none;stroke-width:.458701px;stroke-linecap:butt;stroke-linejoin:miter;stroke-opacity:1;filter:url(#filter3735)" id="path3411" d="M 133.45096,18.844383 93.763459,78.375634 V 120.70897 H 114.93013 V 78.375634 l 39.6875,-59.531251 z" transform="matrix(0.57762347,0,0,0.57599579,38.297275,30.409003)"/><rect style="fill:#ccc;fill-opacity:1;stroke:none;stroke-width:2.64583;stroke-linecap:square;stroke-linejoin:round;stroke-miterlimit:4;stroke-dasharray:none;stroke-opacity:1" id="rect3958-5" width="7.728" height="3.889" x="115.661" y="64.588"/><path id="path4057" d="m 127.43803,50.950867 c -4.49911,3.585314 -9.61417,6.96217 -13.14093,12.010414 -0.59324,0.84916 -1.25197,1.872533 -1.6539,3.043101 -0.40194,1.170569 -0.53128,2.557732 0.0768,3.874472 0.79602,1.723983 2.43613,2.583737 3.82449,3.119601 l 0.82809,-2.131859 c -1.15662,-0.446413 -2.17607,-1.088441 -2.57111,-1.943985 -0.30953,-0.670365 -0.27071,-1.360012 0.0102,-2.177985 0.28087,-0.817971 0.8197,-1.693831 1.36621,-2.476107 3.20095,-4.581875 8.08637,-7.863055 12.69079,-11.532291 z" style="color:#000;font-style:normal;font-variant:normal;font-weight:400;font-stretch:normal;font-size:medium;line-height:normal;font-family:sans-serif;font-variant-ligatures:normal;font-variant-position:normal;font-variant-caps:normal;font-variant-numeric:normal;font-variant-alternates:normal;font-variant-east-asian:normal;font-feature-settings:normal;font-variation-settings:normal;text-indent:0;text-align:start;text-decoration:none;text-decoration-line:none;text-decoration-style:solid;text-decoration-color:#000;letter-spacing:normal;word-spacing:normal;text-transform:none;writing-mode:lr-tb;direction:ltr;text-orientation:mixed;dominant-baseline:auto;baseline-shift:baseline;text-anchor:start;white-space:normal;shape-padding:0;shape-margin:0;inline-size:0;clip-rule:nonzero;display:inline;overflow:visible;visibility:visible;isolation:auto;mix-blend-mode:normal;color-interpolation:sRGB;color-interpolation-filters:linearRGB;solid-color:#000;solid-opacity:1;vector-effect:none;fill:url(#linearGradient4069);fill-opacity:1;fill-rule:nonzero;stroke:none;stroke-width:3.96875;stroke-linecap:butt;stroke-linejoin:miter;stroke-miterlimit:4;stroke-dasharray:none;stroke-dashoffset:0;stroke-opacity:1;color-rendering:auto;image-rendering:auto;shape-rendering:auto;text-rendering:auto;enable-background:accumulate;stop-color:#000"/><path id="path3915-7" d="m 152.82489,54.238643 c -1.3322,-1.60638 -2.89692,-3.019223 -4.59151,-4.236864 -3.8842,-2.79095 -8.76355,-4.766348 -13.62624,-4.007173 -3.49893,0.546262 -6.43631,3.017576 -7.99051,6.122727 l -0.009,-9.31e-4 c 0.002,0.002 0.004,0.004 0.006,0.006 -0.006,0.01307 -0.0137,0.02574 -0.0202,0.03881 l 0.0661,0.0079 c 0.30644,0.31369 0.61656,0.623956 0.93156,0.929102 3.31103,3.207473 7.38711,6.123876 12.14444,6.415361 4.91333,0.301038 9.54976,-1.800701 13.73171,-4.160831 l 0.24065,0.02873 c -0.2814,-0.391305 -0.57637,-0.772339 -0.88379,-1.14304 z" style="fill:url(#linearGradient3989);fill-opacity:1;stroke:none;stroke-width:.264583px;stroke-linecap:butt;stroke-linejoin:miter;stroke-opacity:1"/><path id="path4061" d="m 126.86943,61.490916 -0.85965,2.119484 c 0.821,0.331126 1.71632,0.695567 2.3353,1.123866 0.61899,0.4283 0.89892,0.789961 0.9285,1.331991 0.0762,1.397898 -1.20265,2.727161 -2.5824,3.972345 -3.6528,3.29658 -8.36792,5.688467 -12.07932,9.609679 -0.52899,0.558888 -1.12479,1.289212 -1.4858,2.204985 -0.36102,0.915771 -0.4223,2.163708 0.30686,3.171355 0.81646,1.128277 1.99939,1.643891 2.95468,2.032856 l 0.86643,-2.116105 c -0.8681,-0.353472 -1.59407,-0.746082 -1.96189,-1.254369 -0.22707,-0.313791 -0.21691,-0.530638 -0.0327,-0.997868 0.18419,-0.46723 0.60789,-1.037425 1.01873,-1.47149 3.35197,-3.541447 7.99566,-5.914323 11.95071,-9.48368 1.4078,-1.270511 3.48098,-3.093204 3.33375,-5.792583 -0.0764,-1.400066 -0.97316,-2.436847 -1.91112,-3.085852 -0.93796,-0.649005 -1.98022,-1.04122 -2.78207,-1.364614 z" style="color:#000;font-style:normal;font-variant:normal;font-weight:400;font-stretch:normal;font-size:medium;line-height:normal;font-family:sans-serif;font-variant-ligatures:normal;font-variant-position:normal;font-variant-caps:normal;font-variant-numeric:normal;font-variant-alternates:normal;font-variant-east-asian:normal;font-feature-settings:normal;font-variation-settings:normal;text-indent:0;text-align:start;text-decoration:none;text-decoration-line:none;text-decoration-style:solid;text-decoration-color:#000;letter-spacing:normal;word-spacing:normal;text-transform:none;writing-mode:lr-tb;direction:ltr;text-orientation:mixed;dominant-baseline:auto;baseline-shift:baseline;text-anchor:start;white-space:normal;shape-padding:0;shape-margin:0;inline-size:0;clip-rule:nonzero;display:inline;overflow:visible;visibility:visible;isolation:auto;mix-blend-mode:normal;color-interpolation:sRGB;color-interpolation-filters:linearRGB;solid-color:#000;solid-opacity:1;vector-effect:none;fill:url(#linearGradient4209);fill-opacity:1;fill-rule:nonzero;stroke:none;stroke-width:3.96875;stroke-linecap:butt;stroke-linejoin:miter;stroke-miterlimit:4;stroke-dasharray:none;stroke-dashoffset:0;stroke-opacity:1;color-rendering:auto;image-rendering:auto;shape-rendering:auto;text-rendering:auto;enable-background:accumulate;stop-color:#000"/><rect id="rect3958" width="6.778" height="5.437" x="120.83" y="61.175" rx=".063" ry=".063" style="fill:#ccc;fill-opacity:1;stroke:none;stroke-width:2.64583;stroke-linecap:square;stroke-linejoin:round;stroke-miterlimit:4;stroke-dasharray:none;stroke-opacity:1"/><path style="fill:url(#linearGradient3981);fill-opacity:1;stroke:none;stroke-width:.264583px;stroke-linecap:butt;stroke-linejoin:miter;stroke-opacity:1" id="path3915" d="m 149.72587,28.132798 c -2.6151,-0.0081 -5.22967,0.361561 -7.75997,1.012024 -5.79967,1.490919 -11.60928,4.588702 -14.76865,9.858898 -2.27331,3.792151 -2.24093,8.586404 -0.49043,12.561598 l -0.008,0.0074 c 0.004,-3.05e-4 0.007,-6.33e-4 0.0108,-9.3e-4 0.007,0.01668 0.014,0.03365 0.0215,0.0503 l 0.0606,-0.05715 c 0.54773,-0.04281 1.09509,-0.09188 1.64142,-0.149722 5.74262,-0.607994 11.81683,-2.182515 15.90502,-6.510884 4.22225,-4.470292 5.90591,-10.597937 6.97673,-16.496575 l 0.2203,-0.207763 c -0.60253,-0.0433 -1.20601,-0.06539 -1.80949,-0.06727 z"/><rect style="fill:#ccc;fill-opacity:1;stroke:none;stroke-width:2.64583;stroke-linecap:square;stroke-linejoin:round;stroke-miterlimit:4;stroke-dasharray:none;stroke-opacity:1" id="rect3958-3" width="6.533" height="5.096" x="115.442" y="68.421" rx=".063" ry=".063"/><rect id="rect3958-3-5" width="6.533" height="4.157" x="115.448" y="83.854" rx=".063" ry=".063" style="fill:#ccc;fill-opacity:1;stroke:none;stroke-width:2.64583;stroke-linecap:square;stroke-linejoin:round;stroke-miterlimit:4;stroke-dasharray:none;stroke-opacity:1"/></g></g></svg>