<svg xmlns="http://www.w3.org/2000/svg" xmlns:svg="http://www.w3.org/2000/svg" xmlns:xlink="http://www.w3.org/1999/xlink" id="svg8" width="501.684" height="485.324" version="1.1" viewBox="0 0 132.737 128.409"><defs id="defs2"><filter style="color-interpolation-filters:sRGB" id="filter3735"><feFlood id="feFlood3725" flood-color="#000" flood-opacity=".498" result="flood"/><feComposite id="feComposite3727" in="flood" in2="SourceGraphic" operator="in" result="composite1"/><feGaussianBlur id="feGaussianBlur3729" in="composite1" result="blur" stdDeviation=".7"/><feOffset id="feOffset3731" dx=".2" dy=".2" result="offset"/><feComposite id="feComposite3733" in="SourceGraphic" in2="offset" operator="over" result="fbSourceGraphic"/><feColorMatrix id="feColorMatrix3785" in="fbSourceGraphic" result="fbSourceGraphicAlpha" values="0 0 0 -1 0 0 0 0 -1 0 0 0 0 -1 0 0 0 0 1 0"/><feFlood id="feFlood3787" flood-color="#000" flood-opacity=".498" in="fbSourceGraphic" result="flood"/><feComposite id="feComposite3789" in="flood" in2="fbSourceGraphic" operator="in" result="composite1"/><feGaussianBlur id="feGaussianBlur3791" in="composite1" result="blur" stdDeviation="1"/><feOffset id="feOffset3793" dx=".1" dy=".5" result="offset"/><feComposite id="feComposite3795" in="fbSourceGraphic" in2="offset" operator="over" result="composite2"/></filter><filter style="color-interpolation-filters:sRGB" id="filter3771"><feFlood id="feFlood3761" flood-color="#000" flood-opacity=".498" result="flood"/><feComposite id="feComposite3763" in="flood" in2="SourceGraphic" operator="in" result="composite1"/><feGaussianBlur id="feGaussianBlur3765" in="composite1" result="blur" stdDeviation=".7"/><feOffset id="feOffset3767" dx="0" dy=".2" result="offset"/><feComposite id="feComposite3769" in="SourceGraphic" in2="offset" operator="over" result="composite2"/></filter><linearGradient id="linearGradient3989" x1="99.569" x2="132.077" y1="45.882" y2="47.327" gradientTransform="matrix(0.80886634,0,0,0.79135114,60.875268,15.014725)" gradientUnits="userSpaceOnUse" xlink:href="#linearGradient3987"/><linearGradient id="linearGradient3987"><stop id="stop3983" offset="0" style="stop-color:#007f00;stop-opacity:1"/><stop id="stop3985" offset="1" style="stop-color:#00ce00;stop-opacity:1"/></linearGradient><linearGradient id="linearGradient3981" x1="97.572" x2="127.172" y1="39.673" y2="14.656" gradientTransform="matrix(0.80886634,0,0,0.79135114,60.875268,15.014725)" gradientUnits="userSpaceOnUse" xlink:href="#linearGradient3979"/><linearGradient id="linearGradient3979"><stop id="stop3975" offset="0" style="stop-color:#00a800;stop-opacity:1"/><stop id="stop3977" offset="1" style="stop-color:#00e700;stop-opacity:1"/></linearGradient></defs><metadata id="metadata5"/><g id="layer2" transform="translate(-35.555122,-5.6152164)"><ellipse id="path970" cx="101.192" cy="70.407" rx="63.487" ry="62.54" style="fill:#1a1a1a;fill-opacity:1;stroke-width:5.29167"/><g id="g105" transform="matrix(1.1856074,0,0,1.1844558,-17.344671,-2.9471581)" style="stroke-width:.843859"><path style="fill:#ccc;fill-opacity:1;stroke:none;stroke-width:.223271px;stroke-linecap:butt;stroke-linejoin:miter;stroke-opacity:1" id="path3475" d="M 72.171425,32.883488 V 100.69607 L 56.402331,87.919785 V 32.883488 Z"/><path id="path3473" d="M 118.49314,32.883488 V 100.69607 L 134.26223,87.919785 V 32.883488 Z" style="fill:#ccc;fill-opacity:1;stroke:none;stroke-width:.223271px;stroke-linecap:butt;stroke-linejoin:miter;stroke-opacity:1"/><path id="path3477" d="M 50.107206,18.844383 H 71.273873 L 114.93013,78.375634 H 93.763457 Z" transform="matrix(0.74499642,0,0,0.7428971,19.072644,18.88405)" style="fill:#f2f2f2;fill-opacity:1;stroke:none;stroke-width:.300117px;stroke-linecap:butt;stroke-linejoin:miter;stroke-opacity:1;filter:url(#filter3771)"/><path id="path3411" d="M 133.45096,18.844383 93.763459,78.375634 V 120.70897 H 114.93013 V 78.375634 l 39.6875,-59.531251 z" transform="matrix(0.74499642,0,0,0.7428971,19.072644,18.88405)" style="fill:#f9f9f9;stroke:none;stroke-width:.300117px;stroke-linecap:butt;stroke-linejoin:miter;stroke-opacity:1;filter:url(#filter3735)"/><rect id="rect3958-5" width="9.968" height="5.016" x="118.853" y="62.966" style="fill:#ccc;fill-opacity:1;stroke:none;stroke-width:2.23271;stroke-linecap:square;stroke-linejoin:round;stroke-miterlimit:4;stroke-dasharray:none;stroke-opacity:1"/><rect style="fill:#ccc;fill-opacity:1;stroke:none;stroke-width:2.23271;stroke-linecap:square;stroke-linejoin:round;stroke-miterlimit:4;stroke-dasharray:none;stroke-opacity:1" id="rect3958" width="8.741" height="7.013" x="125.521" y="58.564" rx=".054" ry=".054"/><rect id="rect3958-3" width="8.426" height="6.572" x="118.571" y="67.911" rx=".054" ry=".054" style="fill:#ccc;fill-opacity:1;stroke:none;stroke-width:2.23271;stroke-linecap:square;stroke-linejoin:round;stroke-miterlimit:4;stroke-dasharray:none;stroke-opacity:1"/><rect style="fill:#ccc;fill-opacity:1;stroke:none;stroke-width:2.23271;stroke-linecap:square;stroke-linejoin:round;stroke-miterlimit:4;stroke-dasharray:none;stroke-opacity:1" id="rect3958-3-5" width="8.426" height="5.362" x="118.579" y="87.815" rx=".054" ry=".054"/></g><g id="g109" transform="matrix(1.2362982,0,0,1.2636615,-39.704862,-13.358314)" style="stroke-width:.800061"><path style="fill:url(#linearGradient3989);fill-opacity:1;stroke:none;stroke-width:.211683px;stroke-linecap:butt;stroke-linejoin:miter;stroke-opacity:1" id="path3915-7" d="m 166.78593,49.618598 c -1.71821,-2.071846 -3.73633,-3.894077 -5.92195,-5.464543 -5.00969,-3.59966 -11.30288,-6.147451 -17.57459,-5.168297 -4.51279,0.704548 -8.30131,3.891953 -10.30585,7.896856 l -0.011,-0.0012 c 0.002,0.0026 0.005,0.0052 0.008,0.0078 -0.008,0.01686 -0.0177,0.0332 -0.026,0.05006 l 0.0853,0.0102 c 0.39524,0.404586 0.79522,0.804755 1.20149,1.198321 4.27044,4.136874 9.52761,7.898338 15.66344,8.274284 6.33702,0.388267 12.31691,-2.322474 17.71062,-5.366479 l 0.31038,0.03705 c -0.36294,-0.50469 -0.74337,-0.996133 -1.13987,-1.474249 z"/><path id="path3915" d="m 162.78894,15.948288 c -3.37286,-0.0105 -6.74503,0.466328 -10.00851,1.30527 -7.48019,1.922929 -14.9732,5.91833 -19.04803,12.715626 -2.93203,4.890969 -2.89027,11.074411 -0.63254,16.201463 l -0.01,0.0096 c 0.005,-3.94e-4 0.009,-8.17e-4 0.0139,-0.0012 0.009,0.02152 0.0181,0.0434 0.0277,0.06488 l 0.0781,-0.07371 c 0.70644,-0.05521 1.41241,-0.118501 2.11704,-0.193105 7.40662,-0.784167 15.24089,-2.814924 20.51368,-8.397487 5.4457,-5.76561 7.61722,-13.668809 8.99832,-21.276645 l 0.28413,-0.267964 c -0.77712,-0.05584 -1.55546,-0.08434 -2.3338,-0.08676 z" style="fill:url(#linearGradient3981);fill-opacity:1;stroke:none;stroke-width:.211683px;stroke-linecap:butt;stroke-linejoin:miter;stroke-opacity:1"/></g></g></svg>